<svg width="273" height="260" viewBox="0 0 273 260" fill="none" xmlns="http://www.w3.org/2000/svg">
<ellipse cx="136.5" cy="130" rx="136.5" ry="130" fill="#203C27"/>
<path d="M136.8 77C134 77 131.6 76 129.6 74C127.733 72 126.8 69.4667 126.8 66.4C126.8 63.3333 127.733 60.8667 129.6 59C131.6 57 134 56 136.8 56C139.6 56 141.933 57 143.8 59C145.667 60.8667 146.6 63.3333 146.6 66.4C146.6 69.4667 145.667 72 143.8 74C141.933 76 139.6 77 136.8 77ZM120 198C118 198 117 197.267 117 195.8C117 194.6 117.867 193.8 119.6 193.4L122 193C125.333 192.467 127.467 191.667 128.4 190.6C129.333 189.4 129.8 187.4 129.8 184.6V117.4C129.8 115 129.4 113.4 128.6 112.6C127.933 111.667 126.667 111.067 124.8 110.8L120.6 110.2C118.867 110.067 118 109.333 118 108C118 106.933 119.067 106.2 121.2 105.8C125.333 105.133 128.667 104.067 131.2 102.6C133.733 101.133 136.2 99.3333 138.6 97.2C139.8 96 140.8 95.4 141.6 95.4C142.8 95.4 143.4 96.2 143.4 97.8V184.6C143.4 187.4 143.8 189.4 144.6 190.6C145.4 191.8 146.933 192.533 149.2 192.8L154.2 193.4C155.667 193.667 156.4 194.4 156.4 195.6C156.4 197.2 155.4 198 153.4 198H120Z" fill="#F8FFF9"/>
</svg>
